<svg width="20" height="20" viewBox="0 0 20 20" fill="none" xmlns="http://www.w3.org/2000/svg">
<g clip-path="url(#clip0_1_2350)">
<path d="M20 0H0V20H20V0Z" fill="url(#paint0_radial_1_2350)"/>
<path d="M20 0H0V20H20V0Z" fill="url(#paint1_radial_1_2350)"/>
<path d="M10 4.36747C11.8223 4.36747 12.0708 4.36747 12.8163 4.36747C13.4789 4.36747 13.8102 4.53313 14.0587 4.61596C14.3901 4.78163 14.6386 4.86446 14.887 5.11295C15.1355 5.36145 15.3012 5.60994 15.384 5.94127C15.4669 6.18976 15.5497 6.52109 15.6325 7.18374C15.6325 7.92922 15.6325 8.09488 15.6325 10C15.6325 11.9051 15.6325 12.0708 15.6325 12.8163C15.6325 13.4789 15.4669 13.8102 15.384 14.0587C15.2184 14.3901 15.1355 14.6386 14.887 14.887C14.6386 15.1355 14.3901 15.3012 14.0587 15.384C13.8102 15.4669 13.4789 15.5497 12.8163 15.6325C12.0708 15.6325 11.9051 15.6325 10 15.6325C8.09488 15.6325 7.92922 15.6325 7.18374 15.6325C6.52109 15.6325 6.18976 15.4669 5.94127 15.384C5.60994 15.2184 5.36145 15.1355 5.11295 14.887C4.86446 14.6386 4.6988 14.3901 4.61596 14.0587C4.53313 13.8102 4.4503 13.4789 4.36747 12.8163C4.36747 12.0708 4.36747 11.9051 4.36747 10C4.36747 8.09488 4.36747 7.92922 4.36747 7.18374C4.36747 6.52109 4.53313 6.18976 4.61596 5.94127C4.78163 5.60994 4.86446 5.36145 5.11295 5.11295C5.36145 4.86446 5.60994 4.6988 5.94127 4.61596C6.18976 4.53313 6.52109 4.4503 7.18374 4.36747C7.92922 4.36747 8.17771 4.36747 10 4.36747ZM10 3.125C8.09488 3.125 7.92922 3.125 7.18374 3.125C6.43825 3.125 5.94127 3.29066 5.52711 3.45633C5.11295 3.62199 4.6988 3.87048 4.28464 4.28464C3.87048 4.6988 3.70482 5.03012 3.45633 5.52711C3.29066 5.94127 3.20783 6.43825 3.125 7.18374C3.125 7.92922 3.125 8.17771 3.125 10C3.125 11.9051 3.125 12.0708 3.125 12.8163C3.125 13.5617 3.29066 14.0587 3.45633 14.4729C3.62199 14.887 3.87048 15.3012 4.28464 15.7154C4.6988 16.1295 5.03012 16.2952 5.52711 16.5437C5.94127 16.7093 6.43825 16.7922 7.18374 16.875C7.92922 16.875 8.17771 16.875 10 16.875C11.8223 16.875 12.0708 16.875 12.8163 16.875C13.5617 16.875 14.0587 16.7093 14.4729 16.5437C14.887 16.378 15.3012 16.1295 15.7154 15.7154C16.1295 15.3012 16.2952 14.9699 16.5437 14.4729C16.7093 14.0587 16.7922 13.5617 16.875 12.8163C16.875 12.0708 16.875 11.8223 16.875 10C16.875 8.17771 16.875 7.92922 16.875 7.18374C16.875 6.43825 16.7093 5.94127 16.5437 5.52711C16.378 5.11295 16.1295 4.6988 15.7154 4.28464C15.3012 3.87048 14.9699 3.70482 14.4729 3.45633C14.0587 3.29066 13.5617 3.20783 12.8163 3.125C12.0708 3.125 11.9051 3.125 10 3.125Z" fill="white"/>
<path d="M10 6.43825C8.01205 6.43825 6.43825 8.01205 6.43825 10C6.43825 11.988 8.01205 13.5617 10 13.5617C11.988 13.5617 13.5617 11.988 13.5617 10C13.5617 8.01205 11.988 6.43825 10 6.43825ZM10 12.3193C8.75753 12.3193 7.68072 11.3253 7.68072 10C7.68072 8.75753 8.6747 7.68072 10 7.68072C11.2425 7.68072 12.3193 8.6747 12.3193 10C12.3193 11.2425 11.2425 12.3193 10 12.3193Z" fill="white"/>
<path d="M13.6446 7.18374C14.102 7.18374 14.4729 6.81289 14.4729 6.35542C14.4729 5.89796 14.102 5.52711 13.6446 5.52711C13.1871 5.52711 12.8163 5.89796 12.8163 6.35542C12.8163 6.81289 13.1871 7.18374 13.6446 7.18374Z" fill="white"/>
</g>
<rect x="0.5" y="0.5" width="19" height="19" stroke="black" stroke-opacity="0.1"/>
<defs>
<radialGradient id="paint0_radial_1_2350" cx="0" cy="0" r="1" gradientUnits="userSpaceOnUse" gradientTransform="translate(7.08333 20.8333) rotate(-81.5289) scale(19.7993)">
<stop stop-color="#FFDD55"/>
<stop offset="0.1" stop-color="#FFDD55"/>
<stop offset="0.517936" stop-color="#FF442C"/>
<stop offset="1" stop-color="#FF1ED2"/>
</radialGradient>
<radialGradient id="paint1_radial_1_2350" cx="0" cy="0" r="1" gradientUnits="userSpaceOnUse" gradientTransform="translate(4.16667 -1.25) rotate(77.1957) scale(9.40043 26.1213)">
<stop offset="0.096473" stop-color="#7000C9"/>
<stop offset="0.408416" stop-color="#9A00E2" stop-opacity="0.723958"/>
<stop offset="0.975495" stop-color="#AD00FF" stop-opacity="0"/>
</radialGradient>
<clipPath id="clip0_1_2350">
<rect width="20" height="20" fill="white"/>
</clipPath>
</defs>
</svg>
